# Blender v2.79 (sub 0) OBJ File: ''
# www.blender.org
mtllib boatClub.mtl
o BoatClub
v 2.200000 1.000000 -0.050000
v 1.500000 1.000000 -1.450000
v 1.500000 1.000000 -0.050000
v 2.200000 1.000000 -1.450000
v 1.500000 2.000000 -3.000000
v 0.000000 2.000000 0.000000
v 0.000000 2.000000 -3.000000
v 1.500000 2.000000 0.000000
v 1.500000 1.250000 -0.050000
v 1.500000 1.000000 0.000000
v 1.500000 1.250000 0.000000
v 1.500000 0.500000 -0.050000
v 1.500000 0.500000 0.000000
v 2.250000 0.310000 -1.500000
v 1.500000 0.310000 -3.000000
v 1.500000 0.310000 -1.500000
v 2.250000 0.310000 -3.000000
v 2.400000 1.000000 0.150000
v 1.500000 1.000000 0.150000
v 2.250000 1.000000 -0.050000
v 2.250000 1.000000 -0.550000
v 2.400000 1.000000 -0.550000
v 2.400000 1.000000 -0.950000
v 2.250000 0.500000 -0.950000
v 2.400000 0.500000 -0.950000
v 2.250000 1.000000 -0.950000
v 2.400000 0.500000 -1.650000
v 2.400000 1.000000 -1.650000
v 1.500000 1.000000 -1.650000
v 1.500000 0.500000 -1.650000
v 1.500000 1.000000 -1.500000
v 1.500000 0.500000 -1.500000
v 2.250000 1.000000 -1.450000
v 2.250000 1.000000 -1.500000
v 2.200000 1.250000 -1.450000
v 2.200000 1.250000 -0.050000
v 2.200000 0.500000 -0.050000
v 1.500000 0.500000 0.150000
v 2.400000 0.500000 0.150000
v 2.400000 0.500000 -0.550000
v 2.250000 0.500000 -0.050000
v 2.250000 0.500000 -0.550000
v 2.250000 2.000000 -5.000000
v 0.000000 2.000000 -5.000000
v 2.250000 2.000000 -3.000000
v 2.250000 1.250000 -1.500000
v 2.250000 1.000000 0.000000
v 2.250000 1.250000 0.000000
v 2.250000 0.000000 0.000000
v 2.250000 0.000000 -5.000000
v 2.250000 0.500000 -1.500000
v 1.250000 1.150000 0.000000
v 1.250000 1.750000 0.000000
v 0.750000 1.750000 0.000000
v 1.500000 0.000000 0.000000
v 0.000000 0.000000 0.000000
v 0.750000 1.150000 0.000000
v 0.000000 0.000000 -5.000000
v 2.250000 0.500000 -1.450000
v 0.750000 2.451324 -0.500000
v 0.750000 2.451324 -2.500000
v 1.500000 1.250000 -1.500000
v 1.500000 1.250000 -1.450000
v 1.250000 1.750000 0.100000
v 0.750000 1.750000 0.100000
v 0.750000 1.150000 0.100000
v 1.250000 1.150000 0.100000
vn 0.0000 1.0000 0.0000
vn 0.0000 -1.0000 0.0000
vn -1.0000 0.0000 0.0000
vn 1.0000 0.0000 0.0000
vn 0.0000 0.0000 1.0000
vn 0.0000 0.0000 -1.0000
vn 0.0000 0.7423 0.6700
vn -0.5156 0.8568 0.0000
vn 0.0000 0.7423 -0.6700
vn 0.5156 0.8568 0.0000
usemtl None
s off
f 1//1 2//1 3//1
f 2//1 1//1 4//1
f 5//2 6//2 7//2
f 6//2 5//2 8//2
f 9//3 10//3 11//3
f 10//3 12//3 13//3
f 12//3 10//3 9//3
f 12//4 9//4 3//4
f 14//1 15//1 16//1
f 15//1 14//1 17//1
f 18//1 10//1 19//1
f 10//1 18//1 3//1
f 3//1 18//1 1//1
f 1//1 18//1 20//1
f 20//1 18//1 21//1
f 21//1 18//1 22//1
f 23//5 24//5 25//5
f 24//5 23//5 26//5
f 27//4 23//4 25//4
f 23//4 27//4 28//4
f 29//6 27//6 30//6
f 27//6 29//6 28//6
f 30//4 31//4 32//4
f 31//4 30//4 29//4
f 23//1 33//1 26//1
f 34//1 29//1 31//1
f 29//1 34//1 28//1
f 28//1 34//1 33//1
f 28//1 33//1 23//1
f 35//3 1//3 36//3
f 1//3 35//3 4//3
f 3//6 37//6 12//6
f 37//6 3//6 1//6
f 18//5 38//5 39//5
f 38//5 18//5 19//5
f 10//3 38//3 19//3
f 38//3 10//3 13//3
f 40//2 41//2 42//2
f 37//2 13//2 12//2
f 13//2 37//2 38//2
f 38//2 37//2 39//2
f 39//2 37//2 41//2
f 39//2 41//2 40//2
f 43//2 7//2 44//2
f 7//2 43//2 5//2
f 5//2 43//2 45//2
f 43//3 17//3 45//3
f 46//3 47//3 48//3
f 47//3 46//3 49//3
f 49//3 46//3 14//3
f 49//3 14//3 50//3
f 14//5 46//5 34//5
f 14//5 34//5 51//5
f 50//3 14//3 17//3
f 50//3 17//3 43//3
f 40//4 18//4 39//4
f 18//4 40//4 22//4
f 21//6 40//6 42//6
f 40//6 21//6 22//6
f 48//5 52//5 47//5
f 52//5 48//5 11//5
f 52//5 11//5 53//5
f 53//5 11//5 8//5
f 53//5 8//5 54//5
f 47//5 55//5 49//5
f 55//5 47//5 56//5
f 56//5 47//5 57//5
f 56//5 57//5 6//5
f 57//5 47//5 52//5
f 6//5 57//5 54//5
f 6//5 54//5 8//5
f 7//3 56//3 6//3
f 56//3 7//3 58//3
f 58//3 7//3 44//3
f 27//2 32//2 30//2
f 32//2 27//2 51//2
f 51//2 27//2 59//2
f 59//2 27//2 24//2
f 24//2 27//2 25//2
f 50//2 56//2 58//2
f 56//2 50//2 55//2
f 55//2 50//2 49//2
f 8//7 60//7 6//7
f 51//5 16//5 14//5
f 16//5 51//5 32//5
f 60//8 7//8 6//8
f 7//8 60//8 61//8
f 5//9 7//9 61//9
f 2//4 9//4 3//4
f 29//4 62//4 31//4
f 15//4 32//4 16//4
f 32//4 15//4 30//4
f 30//4 15//4 29//4
f 9//4 8//4 11//4
f 8//4 9//4 5//4
f 5//4 9//4 63//4
f 63//4 9//4 2//4
f 5//4 63//4 62//4
f 5//4 62//4 29//4
f 5//4 29//4 15//4
f 35//5 2//5 4//5
f 2//5 35//5 63//5
f 44//6 50//6 58//6
f 50//6 44//6 43//6
f 64//1 54//1 65//1
f 54//1 64//1 53//1
f 54//3 66//3 65//3
f 66//3 54//3 57//3
f 34//5 32//5 51//5
f 32//5 34//5 31//5
f 31//5 34//5 46//5
f 31//5 46//5 62//5
f 15//6 45//6 17//6
f 45//6 15//6 5//6
f 48//1 9//1 11//1
f 9//1 48//1 36//1
f 36//1 48//1 35//1
f 35//1 62//1 63//1
f 62//1 35//1 46//1
f 46//1 35//1 48//1
f 52//2 66//2 57//2
f 66//2 52//2 67//2
f 52//4 64//4 67//4
f 64//4 52//4 53//4
f 64//5 66//5 67//5
f 66//5 64//5 65//5
f 9//6 1//6 3//6
f 1//6 9//6 36//6
f 8//10 61//10 60//10
f 61//10 8//10 5//10
