# Blender v2.79 (sub 0) OBJ File: ''
# www.blender.org
mtllib carFrame.mtl
o CarFrame
v 0.000000 0.200000 -0.500000
v 0.150000 0.100000 -0.500000
v 0.000000 0.100000 -0.500000
v 0.250000 0.100000 -0.500000
v 0.253407 0.125882 -0.500000
v 0.263397 0.150000 -0.500000
v 0.279289 0.170711 -0.500000
v 0.300000 0.186603 -0.500000
v 0.324118 0.196593 -0.500000
v 0.150000 0.200000 -0.500000
v 0.350000 0.200000 -0.500000
v 0.350000 0.350000 -0.500000
v 0.750000 0.200000 -0.500000
v 0.950000 0.200000 -0.500000
v 0.775882 0.196593 -0.500000
v 0.750000 0.350000 -0.500000
v 0.446593 0.125882 -0.500000
v 0.550000 0.100000 -0.500000
v 0.450000 0.100000 -0.500000
v 0.650000 0.100000 -0.500000
v 0.653407 0.125882 -0.500000
v 0.436603 0.150000 -0.500000
v 0.663397 0.150000 -0.500000
v 0.420711 0.170711 -0.500000
v 0.679289 0.170711 -0.500000
v 0.400000 0.186603 -0.500000
v 0.700000 0.186603 -0.500000
v 0.375882 0.196593 -0.500000
v 0.724118 0.196593 -0.500000
v 0.846593 0.125882 -0.500000
v 0.950000 0.100000 -0.500000
v 0.850000 0.100000 -0.500000
v 1.050000 0.100000 -0.500000
v 1.050000 0.200000 -0.500000
v 0.836603 0.150000 -0.500000
v 0.820711 0.170711 -0.500000
v 0.800000 0.186603 -0.500000
v 1.050000 0.200000 0.000000
v 1.050000 0.100000 0.000000
v 0.950000 0.200000 0.000000
v 0.750000 0.350000 0.000000
v 0.350000 0.350000 0.000000
v 0.150000 0.200000 0.000000
v 0.000000 0.200000 0.000000
v 0.000000 0.100000 0.000000
v 0.150000 0.100000 0.000000
v 0.250000 0.100000 0.000000
v 0.450000 0.100000 0.000000
v 0.550000 0.100000 0.000000
v 0.650000 0.100000 0.000000
v 0.653407 0.125882 0.000000
v 0.663397 0.150000 0.000000
v 0.679289 0.170711 0.000000
v 0.700000 0.186603 0.000000
v 0.724118 0.196593 0.000000
v 0.750000 0.200000 0.000000
v 0.775882 0.196593 0.000000
v 0.800000 0.186603 0.000000
v 0.820711 0.170711 0.000000
v 0.836603 0.150000 0.000000
v 0.846593 0.125882 0.000000
v 0.850000 0.100000 0.000000
v 0.950000 0.100000 0.000000
v 0.350000 0.200000 0.000000
v 0.324118 0.196593 0.000000
v 0.446593 0.125882 0.000000
v 0.436603 0.150000 0.000000
v 0.420711 0.170711 0.000000
v 0.400000 0.186603 0.000000
v 0.375882 0.196593 0.000000
v 0.253407 0.125882 0.000000
v 0.263397 0.150000 0.000000
v 0.279289 0.170711 0.000000
v 0.300000 0.186603 0.000000
vn 0.0000 0.0000 -1.0000
vn 1.0000 0.0000 0.0000
vn 0.0000 1.0000 0.0000
vn 0.6000 0.8000 0.0000
vn -0.6000 0.8000 0.0000
vn -1.0000 0.0000 0.0000
vn 0.0000 -1.0000 0.0000
vn 0.9914 -0.1305 0.0000
vn 0.9239 -0.3827 0.0000
vn 0.7934 -0.6088 0.0000
vn 0.6088 -0.7934 0.0000
vn 0.3827 -0.9239 0.0000
vn 0.1305 -0.9914 0.0000
vn -0.1305 -0.9914 0.0000
vn -0.3827 -0.9239 0.0000
vn -0.6088 -0.7934 0.0000
vn -0.7934 -0.6088 0.0000
vn -0.9239 -0.3827 0.0000
vn -0.9914 -0.1305 0.0000
vn 0.0000 0.0000 1.0000
usemtl None
s off
f 1//1 2//1 3//1
f 2//1 1//1 4//1
f 4//1 1//1 5//1
f 5//1 1//1 6//1
f 6//1 1//1 7//1
f 7//1 1//1 8//1
f 8//1 1//1 9//1
f 9//1 1//1 10//1
f 9//1 10//1 11//1
f 11//1 10//1 12//1
f 11//1 12//1 13//1
f 13//1 14//1 15//1
f 14//1 13//1 16//1
f 16//1 13//1 12//1
f 17//1 18//1 19//1
f 18//1 17//1 20//1
f 20//1 17//1 21//1
f 21//1 17//1 22//1
f 21//1 22//1 23//1
f 23//1 22//1 24//1
f 23//1 24//1 25//1
f 25//1 24//1 26//1
f 25//1 26//1 27//1
f 27//1 26//1 28//1
f 27//1 28//1 29//1
f 29//1 28//1 13//1
f 13//1 28//1 11//1
f 30//1 31//1 32//1
f 31//1 30//1 33//1
f 33//1 30//1 34//1
f 34//1 30//1 35//1
f 34//1 35//1 36//1
f 34//1 36//1 37//1
f 34//1 37//1 15//1
f 34//1 15//1 14//1
f 33//2 38//2 39//2
f 38//2 33//2 34//2
f 38//3 14//3 40//3
f 14//3 38//3 34//3
f 40//4 16//4 41//4
f 16//4 40//4 14//4
f 41//3 12//3 42//3
f 12//3 41//3 16//3
f 42//5 10//5 43//5
f 10//5 42//5 12//5
f 43//3 1//3 44//3
f 1//3 43//3 10//3
f 1//6 45//6 44//6
f 45//6 1//6 3//6
f 2//7 45//7 3//7
f 45//7 2//7 46//7
f 4//7 46//7 2//7
f 46//7 4//7 47//7
f 18//7 48//7 19//7
f 48//7 18//7 49//7
f 20//7 49//7 18//7
f 49//7 20//7 50//7
f 20//8 51//8 50//8
f 51//8 20//8 21//8
f 21//9 52//9 51//9
f 52//9 21//9 23//9
f 23//10 53//10 52//10
f 53//10 23//10 25//10
f 27//11 53//11 25//11
f 53//11 27//11 54//11
f 29//12 54//12 27//12
f 54//12 29//12 55//12
f 13//13 55//13 29//13
f 55//13 13//13 56//13
f 15//14 56//14 13//14
f 56//14 15//14 57//14
f 37//15 57//15 15//15
f 57//15 37//15 58//15
f 36//16 58//16 37//16
f 58//16 36//16 59//16
f 36//17 60//17 59//17
f 60//17 36//17 35//17
f 35//18 61//18 60//18
f 61//18 35//18 30//18
f 30//19 62//19 61//19
f 62//19 30//19 32//19
f 31//7 62//7 32//7
f 62//7 31//7 63//7
f 33//7 63//7 31//7
f 63//7 33//7 39//7
f 38//20 63//20 39//20
f 63//20 38//20 62//20
f 62//20 38//20 61//20
f 61//20 38//20 60//20
f 60//20 38//20 59//20
f 59//20 38//20 58//20
f 58//20 38//20 57//20
f 57//20 38//20 40//20
f 57//20 40//20 56//20
f 56//20 40//20 41//20
f 56//20 41//20 64//20
f 64//20 43//20 65//20
f 43//20 64//20 42//20
f 42//20 64//20 41//20
f 50//20 48//20 49//20
f 48//20 50//20 66//20
f 66//20 50//20 51//20
f 66//20 51//20 52//20
f 66//20 52//20 67//20
f 67//20 52//20 53//20
f 67//20 53//20 68//20
f 68//20 53//20 54//20
f 68//20 54//20 69//20
f 69//20 54//20 55//20
f 69//20 55//20 70//20
f 70//20 55//20 56//20
f 70//20 56//20 64//20
f 71//20 46//20 47//20
f 46//20 71//20 45//20
f 45//20 71//20 44//20
f 44//20 71//20 72//20
f 44//20 72//20 73//20
f 44//20 73//20 74//20
f 44//20 74//20 65//20
f 44//20 65//20 43//20
f 24//17 67//17 68//17
f 67//17 24//17 22//17
f 22//18 66//18 67//18
f 66//18 22//18 17//18
f 17//19 48//19 66//19
f 48//19 17//19 19//19
f 4//8 71//8 47//8
f 71//8 4//8 5//8
f 5//9 72//9 71//9
f 72//9 5//9 6//9
f 6//10 73//10 72//10
f 73//10 6//10 7//10
f 8//11 73//11 7//11
f 73//11 8//11 74//11
f 9//12 74//12 8//12
f 74//12 9//12 65//12
f 11//13 65//13 9//13
f 65//13 11//13 64//13
f 28//14 64//14 11//14
f 64//14 28//14 70//14
f 26//15 70//15 28//15
f 70//15 26//15 69//15
f 24//16 69//16 26//16
f 69//16 24//16 68//16
