# Blender v2.79 (sub 0) OBJ File: ''
# www.blender.org
mtllib wheel.mtl
o Wheel_(1)
v -0.010000 0.010000 0.000000
v -0.010000 0.050000 0.050000
v -0.010000 0.010000 0.050000
v -0.010000 0.050000 0.000000
v 0.010000 0.050000 0.000000
v 0.010000 0.050000 0.050000
v 0.010000 0.010000 0.050000
v 0.010000 0.010000 0.000000
v 0.050000 0.010000 0.000000
v 0.050000 0.010000 0.050000
v 0.050000 -0.010000 0.050000
v 0.050000 -0.010000 0.000000
v 0.010000 -0.010000 0.000000
v 0.010000 -0.010000 0.050000
v 0.010000 -0.050000 0.050000
v 0.010000 -0.050000 0.000000
v -0.010000 -0.050000 0.000000
v -0.010000 -0.050000 0.050000
v -0.010000 -0.010000 0.050000
v -0.010000 -0.010000 0.000000
v -0.050000 -0.010000 0.000000
v -0.050000 -0.010000 0.050000
v -0.050000 0.010000 0.050000
v -0.050000 0.010000 0.000000
v -0.090000 0.000000 0.000000
v -0.086933 -0.023294 0.000000
v -0.086933 0.023294 0.000000
v -0.077942 0.045000 0.000000
v -0.063640 0.063640 0.000000
v 0.086933 0.023294 0.000000
v 0.077942 0.045000 0.000000
v 0.063640 0.063640 0.000000
v -0.045000 0.077942 0.000000
v 0.045000 0.077942 0.000000
v -0.023294 0.086933 0.000000
v 0.023294 0.086933 0.000000
v -0.000000 0.090000 0.000000
v 0.063640 -0.063640 0.000000
v 0.077942 -0.045000 0.000000
v 0.086933 -0.023294 0.000000
v 0.090000 0.000000 0.000000
v -0.023294 -0.086933 0.000000
v 0.023294 -0.086933 0.000000
v 0.000000 -0.090000 0.000000
v -0.045000 -0.077942 0.000000
v 0.045000 -0.077942 0.000000
v -0.063640 -0.063640 0.000000
v -0.077942 -0.045000 0.000000
v 0.090000 0.000000 0.050000
v 0.086933 -0.023294 0.050000
v 0.086933 0.023294 0.050000
v 0.077942 0.045000 0.050000
v 0.063640 0.063640 0.050000
v -0.063640 0.063640 0.050000
v -0.045000 0.077942 0.050000
v 0.045000 0.077942 0.050000
v -0.023294 0.086933 0.050000
v 0.023294 0.086933 0.050000
v -0.000000 0.090000 0.050000
v -0.086933 0.023294 0.050000
v -0.077942 0.045000 0.050000
v 0.023294 -0.086933 0.050000
v -0.023294 -0.086933 0.050000
v 0.000000 -0.090000 0.050000
v -0.045000 -0.077942 0.050000
v 0.045000 -0.077942 0.050000
v -0.063640 -0.063640 0.050000
v 0.063640 -0.063640 0.050000
v -0.077942 -0.045000 0.050000
v -0.086933 -0.023294 0.050000
v -0.090000 0.000000 0.050000
v 0.077942 -0.045000 0.050000
v 0.050000 0.010000 0.060000
v 0.010000 -0.010000 0.060000
v 0.050000 -0.010000 0.060000
v -0.010000 0.010000 0.060000
v 0.010000 0.010000 0.060000
v -0.010000 0.050000 0.060000
v 0.010000 0.050000 0.060000
v -0.010000 -0.050000 0.060000
v 0.010000 -0.050000 0.060000
v -0.010000 -0.010000 0.060000
v -0.050000 -0.010000 0.060000
v -0.050000 0.010000 0.060000
v -0.010000 0.050000 -0.010000
v 0.010000 0.010000 -0.010000
v -0.010000 0.010000 -0.010000
v 0.010000 0.050000 -0.010000
v -0.050000 0.010000 -0.010000
v -0.010000 -0.010000 -0.010000
v -0.050000 -0.010000 -0.010000
v 0.010000 -0.010000 -0.010000
v 0.050000 -0.010000 -0.010000
v 0.050000 0.010000 -0.010000
v 0.010000 -0.050000 -0.010000
v -0.010000 -0.050000 -0.010000
vn 1.0000 0.0000 0.0000
vn 0.0000 -1.0000 0.0000
vn -1.0000 0.0000 0.0000
vn 0.0000 1.0000 0.0000
vn 0.0000 0.0000 -1.0000
vn 0.0000 0.0000 1.0000
vn -0.9914 0.1305 0.0000
vn -0.9239 0.3827 0.0000
vn -0.7934 0.6088 0.0000
vn -0.6088 0.7934 0.0000
vn -0.3827 0.9239 0.0000
vn -0.1305 0.9914 0.0000
vn 0.1305 0.9914 0.0000
vn 0.3827 0.9239 0.0000
vn 0.6088 0.7934 0.0000
vn 0.7934 0.6088 0.0000
vn 0.9239 0.3827 0.0000
vn 0.9914 0.1305 0.0000
vn 0.9914 -0.1305 0.0000
vn 0.9239 -0.3827 0.0000
vn 0.7934 -0.6088 0.0000
vn 0.6088 -0.7934 0.0000
vn 0.3827 -0.9239 0.0000
vn 0.1305 -0.9914 0.0000
vn -0.1305 -0.9914 0.0000
vn -0.3827 -0.9239 0.0000
vn -0.6088 -0.7934 0.0000
vn -0.7934 -0.6088 0.0000
vn -0.9239 -0.3827 0.0000
vn -0.9914 -0.1305 0.0000
usemtl None
s off
f 1//1 2//1 3//1
f 2//1 1//1 4//1
f 5//2 2//2 4//2
f 2//2 5//2 6//2
f 5//3 7//3 6//3
f 7//3 5//3 8//3
f 9//2 7//2 8//2
f 7//2 9//2 10//2
f 9//3 11//3 10//3
f 11//3 9//3 12//3
f 11//4 13//4 14//4
f 13//4 11//4 12//4
f 13//3 15//3 14//3
f 15//3 13//3 16//3
f 15//4 17//4 18//4
f 17//4 15//4 16//4
f 17//1 19//1 18//1
f 19//1 17//1 20//1
f 19//4 21//4 22//4
f 21//4 19//4 20//4
f 1//2 23//2 24//2
f 23//2 1//2 3//2
f 25//5 21//5 26//5
f 21//5 25//5 24//5
f 24//5 25//5 27//5
f 24//5 27//5 1//5
f 1//5 27//5 4//5
f 4//5 27//5 28//5
f 4//5 28//5 29//5
f 4//5 29//5 5//5
f 5//5 9//5 8//5
f 9//5 5//5 30//5
f 30//5 5//5 31//5
f 31//5 5//5 32//5
f 32//5 5//5 29//5
f 32//5 29//5 33//5
f 32//5 33//5 34//5
f 34//5 33//5 35//5
f 34//5 35//5 36//5
f 36//5 35//5 37//5
f 38//5 16//5 39//5
f 16//5 38//5 17//5
f 39//5 16//5 13//5
f 39//5 13//5 40//5
f 40//5 13//5 12//5
f 40//5 12//5 41//5
f 41//5 12//5 9//5
f 41//5 9//5 30//5
f 42//5 43//5 44//5
f 43//5 42//5 45//5
f 43//5 45//5 46//5
f 46//5 45//5 47//5
f 46//5 47//5 38//5
f 38//5 47//5 48//5
f 38//5 48//5 17//5
f 17//5 48//5 20//5
f 20//5 48//5 26//5
f 20//5 26//5 21//5
f 49//6 11//6 50//6
f 11//6 49//6 10//6
f 10//6 49//6 51//6
f 10//6 51//6 7//6
f 7//6 51//6 6//6
f 6//6 51//6 52//6
f 6//6 52//6 53//6
f 6//6 53//6 2//6
f 2//6 53//6 54//6
f 54//6 53//6 55//6
f 55//6 53//6 56//6
f 55//6 56//6 57//6
f 57//6 56//6 58//6
f 57//6 58//6 59//6
f 2//6 23//6 3//6
f 23//6 2//6 60//6
f 60//6 2//6 61//6
f 61//6 2//6 54//6
f 62//6 63//6 64//6
f 63//6 62//6 65//6
f 65//6 62//6 66//6
f 65//6 66//6 67//6
f 67//6 66//6 68//6
f 67//6 68//6 69//6
f 69//6 68//6 18//6
f 18//6 68//6 15//6
f 69//6 18//6 19//6
f 69//6 19//6 70//6
f 70//6 19//6 22//6
f 70//6 22//6 71//6
f 71//6 22//6 23//6
f 71//6 23//6 60//6
f 72//6 15//6 68//6
f 15//6 72//6 14//6
f 14//6 72//6 50//6
f 14//6 50//6 11//6
f 27//7 71//7 60//7
f 71//7 27//7 25//7
f 28//8 60//8 61//8
f 60//8 28//8 27//8
f 29//9 61//9 54//9
f 61//9 29//9 28//9
f 55//10 29//10 54//10
f 29//10 55//10 33//10
f 57//11 33//11 55//11
f 33//11 57//11 35//11
f 59//12 35//12 57//12
f 35//12 59//12 37//12
f 58//13 37//13 59//13
f 37//13 58//13 36//13
f 56//14 36//14 58//14
f 36//14 56//14 34//14
f 53//15 34//15 56//15
f 34//15 53//15 32//15
f 31//16 53//16 52//16
f 53//16 31//16 32//16
f 30//17 52//17 51//17
f 52//17 30//17 31//17
f 41//18 51//18 49//18
f 51//18 41//18 30//18
f 40//19 49//19 50//19
f 49//19 40//19 41//19
f 39//20 50//20 72//20
f 50//20 39//20 40//20
f 38//21 72//21 68//21
f 72//21 38//21 39//21
f 38//22 66//22 46//22
f 66//22 38//22 68//22
f 46//23 62//23 43//23
f 62//23 46//23 66//23
f 43//24 64//24 44//24
f 64//24 43//24 62//24
f 44//25 63//25 42//25
f 63//25 44//25 64//25
f 42//26 65//26 45//26
f 65//26 42//26 63//26
f 45//27 67//27 47//27
f 67//27 45//27 65//27
f 48//28 67//28 69//28
f 67//28 48//28 47//28
f 26//29 69//29 70//29
f 69//29 26//29 48//29
f 25//30 70//30 71//30
f 70//30 25//30 26//30
f 73//6 74//6 75//6
f 74//6 73//6 76//6
f 76//5 73//5 77//5
f 76//6 77//6 78//6
f 78//6 77//6 79//6
f 74//6 80//6 81//6
f 80//6 74//6 82//6
f 82//5 74//5 83//5
f 83//6 74//6 84//6
f 84//6 74//6 76//6
f 23//3 83//3 84//3
f 83//3 23//3 22//3
f 19//2 83//2 22//2
f 83//2 19//2 82//2
f 19//3 80//3 82//3
f 80//3 19//3 18//3
f 15//2 80//2 18//2
f 80//2 15//2 81//2
f 15//1 74//1 81//1
f 74//1 15//1 14//1
f 11//2 74//2 14//2
f 74//2 11//2 75//2
f 11//1 73//1 75//1
f 73//1 11//1 10//1
f 73//4 7//4 77//4
f 7//4 73//4 10//4
f 7//1 79//1 77//1
f 79//1 7//1 6//1
f 79//4 2//4 78//4
f 2//4 79//4 6//4
f 2//3 76//3 78//3
f 76//3 2//3 3//3
f 76//4 23//4 84//4
f 23//4 76//4 3//4
f 21//1 23//1 22//1
f 23//1 21//1 24//1
f 85//5 86//5 87//5
f 86//5 85//5 88//5
f 89//5 90//5 91//5
f 90//5 89//5 92//5
f 92//5 89//5 93//5
f 93//5 89//5 87//5
f 93//5 87//5 94//5
f 94//6 87//6 86//6
f 90//5 95//5 96//5
f 95//5 90//5 92//5
f 85//3 1//3 4//3
f 1//3 85//3 87//3
f 5//4 85//4 4//4
f 85//4 5//4 88//4
f 86//1 5//1 8//1
f 5//1 86//1 88//1
f 9//4 86//4 8//4
f 86//4 9//4 94//4
f 93//1 9//1 12//1
f 9//1 93//1 94//1
f 93//2 13//2 92//2
f 13//2 93//2 12//2
f 95//1 13//1 16//1
f 13//1 95//1 92//1
f 95//2 17//2 96//2
f 17//2 95//2 16//2
f 90//3 17//3 20//3
f 17//3 90//3 96//3
f 90//2 21//2 91//2
f 21//2 90//2 20//2
f 89//3 21//3 24//3
f 21//3 89//3 91//3
f 1//4 89//4 24//4
f 89//4 1//4 87//4
