# Blender v2.79 (sub 0) OBJ File: ''
# www.blender.org
mtllib bridgeSection.mtl
o bridgeSection
v 0.851662 0.500000 -1.000000
v 0.851662 0.000000 0.000000
v 0.851662 0.500000 0.000000
v 0.851662 0.000000 -1.000000
v 0.100000 0.500000 -1.000000
v 0.100000 0.000000 0.000000
v 0.100000 0.500000 0.000000
v 0.100000 0.000000 -1.000000
v 0.951662 0.750000 -1.000000
v 0.950000 0.000015 -1.000000
v 0.951662 0.000000 -1.000000
v 0.950000 0.750000 -1.000000
v 0.950000 0.000015 0.000000
v 0.951662 0.000000 -0.000000
v 0.950000 1.000000 0.000000
v 0.950000 0.750000 0.000000
v 0.951662 0.750000 -0.000000
v 0.475831 0.750000 -1.000000
v 0.000000 0.000000 0.000000
v 0.000000 0.000000 -1.000000
v -0.000000 0.750000 0.000000
v 0.475831 0.750000 0.000000
v 0.475831 0.750000 -0.850000
v 0.000000 0.750000 -1.000000
v -0.000000 0.750000 -0.850000
v 0.950000 1.000000 -1.000000
v 0.951662 0.375000 0.000000
v -0.000000 0.750000 -0.150000
v 0.951662 0.750000 -0.850000
v 0.475831 0.750000 -0.150000
v -0.000000 1.000000 -1.000000
v -0.000000 1.000000 -0.850000
v -0.000000 1.000000 -0.150000
v -0.000000 1.000000 0.000000
v 0.950000 1.000000 -0.850000
v 0.951662 0.750000 -0.150000
v 0.950000 1.000000 -0.150000
vn -1.0000 -0.0000 0.0000
vn -0.0000 0.0000 1.0000
vn 0.0002 -1.0000 0.0000
vn -0.0092 -1.0000 0.0000
vn 0.0000 -1.0000 0.0000
vn 0.0000 1.0000 0.0000
vn 0.5539 0.8326 0.0000
vn 0.5538 0.8326 0.0000
vn -0.5539 0.8326 0.0000
vn -1.0000 -0.0066 0.0000
vn 0.0000 0.0000 -1.0000
vn 1.0000 0.0066 0.0000
vn 1.0000 0.0000 0.0000
usemtl None
s off
f 1//1 2//1 3//1
f 2//1 1//1 4//1
f 5//1 6//1 7//1
f 6//1 5//1 8//1
f 9//2 10//2 11//2
f 10//2 9//2 12//2
f 10//3 2//3 4//3
f 2//3 10//3 13//3
f 11//4 13//4 10//4
f 13//4 11//4 14//4
f 15//2 16//2 17//2
f 10//2 1//2 4//2
f 1//2 10//2 12//2
f 1//2 12//2 18//2
f 8//5 19//5 20//5
f 19//5 8//5 6//5
f 7//2 19//2 6//2
f 19//2 7//2 21//2
f 21//2 7//2 22//2
f 13//2 3//2 2//2
f 3//2 13//2 16//2
f 3//2 16//2 22//2
f 23//6 24//6 25//6
f 24//6 23//6 18//6
f 5//2 20//2 8//2
f 20//2 5//2 24//2
f 24//2 5//2 18//2
f 26//2 12//2 9//2
f 27//2 13//2 14//2
f 13//2 27//2 16//2
f 16//2 27//2 17//2
f 28//1 19//1 21//1
f 19//1 28//1 20//1
f 20//1 28//1 25//1
f 20//1 25//1 24//1
f 29//6 18//6 23//6
f 18//6 29//6 12//6
f 12//6 29//6 9//6
f 3//7 30//7 22//7
f 30//7 3//7 23//7
f 23//8 3//8 18//8
f 18//7 3//7 1//7
f 22//9 5//9 7//9
f 5//9 22//9 18//9
f 18//6 22//6 30//6
f 18//6 30//6 23//6
f 31//1 25//1 32//1
f 25//1 31//1 24//1
f 33//1 21//1 34//1
f 21//1 33//1 28//1
f 26//10 29//10 35//10
f 29//10 26//10 9//10
f 26//2 18//2 12//2
f 18//2 26//2 31//2
f 31//2 24//2 18//2
f 26//5 32//5 31//5
f 32//5 26//5 35//5
f 30//6 25//6 28//6
f 25//6 30//6 23//6
f 36//6 23//6 30//6
f 23//6 36//6 29//6
f 32//11 23//11 25//11
f 23//11 35//11 29//11
f 35//11 23//11 32//11
f 16//6 30//6 22//6
f 30//6 16//6 36//6
f 36//6 16//6 17//6
f 21//6 30//6 28//6
f 30//6 21//6 22//6
f 17//12 37//12 15//12
f 37//12 17//12 36//12
f 15//2 22//2 16//2
f 22//2 15//2 34//2
f 34//2 21//2 22//2
f 15//6 33//6 34//6
f 33//6 15//6 37//6
f 33//11 30//11 28//11
f 30//11 37//11 36//11
f 37//11 30//11 33//11
f 14//13 17//13 27//13
f 17//13 14//13 11//13
f 17//13 11//13 36//13
f 36//13 11//13 29//13
f 29//13 11//13 9//13
